<svg width="2560" height="1784" viewBox="0 0 2560 1784" fill="none" xmlns="http://www.w3.org/2000/svg">
<mask id="mask0" mask-type="alpha" maskUnits="userSpaceOnUse" x="0" y="0" width="2560" height="1784">
<rect width="2560" height="1784" fill="#C4C4C4"/>
</mask>
<g mask="url(#mask0)">
<rect y="560" width="2560" height="821" fill="white"/>
<path d="M2769.5 1868L-508 1842.5C-448.678 1842.5 -343.75 1719.13 -302.005 1694.79L150.603 1413.55C236.291 1360.82 376.906 1360.82 460.397 1413.55L1120 1595.5L1849 1369.5L2352 1413.55C2393.75 1437.89 2712.37 1868 2769.5 1868Z" fill="#000F1D"/>
<path d="M2788.88 1477.61L2805.22 1476.79L2773.84 815.229L2709.55 868.041C2659.58 879.433 2818.53 1262.25 2589.74 1055.14C2360.95 848.031 2312.91 831.681 2161.15 817.194C2009.4 802.707 1517.64 1101.3 1172.46 1191.86L972.456 1238.71C922.49 1250.1 863.716 1248.95 810.6 1232.93L228.061 1059.5C117.951 1025.76 -3.01887 1055.31 -42.8082 1123.23L-250.106 1483.84C-269.864 1516.53 -309.015 1540.69 -359.119 1553.35L-571.715 1604C-650.886 1622.57 -740.417 1605.22 -799.374 1567.95C-755.566 1613.91 -673.701 1645.9 -585.86 1641.16L-353.139 1630.05C-298.107 1628.23 -249.464 1610.25 -216.062 1582.9L133.5 1339C200.714 1280.47 342.184 1262.92 438.332 1313.21L949.693 1526.32C995.964 1549.34 1053.51 1561.96 1108.67 1558.86L1327.07 1548.8C1382.1 1546.98 1432.75 1529.21 1464.14 1501.64L1821.94 1195.87C1889.15 1137.34 2023.86 1131.18 2120 1181.47L2629.9 1445.07C2676.17 1468.09 2733.71 1480.71 2788.88 1477.61Z" fill="#007C89"/>
<path d="M2881.14 1734.28H2690.43C2633.85 1734.28 2581.46 1721.55 2541.64 1700.72L2109.94 1460.08C2028.21 1414.96 1894.08 1414.96 1814.45 1460.08L1382.74 1700.72C1342.92 1722.71 1290.53 1734.28 1233.95 1734.28H1016C959.417 1734.28 907.026 1721.55 867.209 1700.72L435.502 1460.08C353.771 1414.96 219.649 1414.96 140.014 1460.08L-291.693 1700.72C-331.511 1722.71 -383.902 1734.28 -440.485 1734.28H-673.102C-763.216 1734.28 -838.661 1703.04 -868 1660.23C-868 1660.23 -867.999 1659.07 -865.904 1659.07L-863.808 1660.23C-813.513 1697.25 -725.494 1716.92 -635.381 1705.35L-396.476 1672.96C-339.893 1664.86 -289.597 1645.19 -258.162 1617.42L77.1441 1308.52C140.014 1250.67 278.327 1231 383.11 1266.87L938.461 1454.29C988.756 1471.65 1049.53 1476.28 1106.11 1468.18L1330.35 1438.1C1386.93 1430 1437.23 1410.33 1466.57 1382.56L1801.87 1073.66C1864.74 1015.81 2003.06 996.14 2107.84 1032.01L2663.19 1219.43C2713.49 1236.79 2774.26 1241.41 2830.84 1233.32L2847.61 1231L3073.94 1579.24C3126.33 1655.6 3025.74 1734.28 2881.14 1734.28Z" fill="#005568"/>
<path d="M3273.47 1151.98L3055.04 1138.27C2990.23 1134.2 2965.03 1242.94 2921 1215L2430 793C2318.5 694 2167.05 696.463 2072.43 745.074L1559.77 1003.83C1512.5 1027.44 1451.62 1037.61 1386.81 1033.54L1137.18 1017.87C1072.37 1013.8 1013.32 994.704 969.289 966.762L522 703.5C397 631.5 246.248 613.5 142.5 725C38.7512 836.5 -427 1416 -427 1416C-474.268 1439.61 -466.243 917.206 -531.052 913.138L-797.487 896.411C-900.701 889.932 -984.753 846.888 -1015.12 793.228C-1015.12 793.228 -1015.03 791.835 -1012.63 791.985L-1010.32 793.529C-955.511 841.73 -856.184 871.745 -752.095 864.292L-585.468 183.716C-520.046 178.031 -286.786 182.841 -248.682 151.663L142.5 -135.502C218.883 -200.644 578.195 -159.727 695.5 -109.001C812.805 -58.2757 927.5 -109 1207 -109.002C1486.5 -109.004 1494.35 -129.82 1559.77 -135.504L1808.5 -109.001C1873.92 -114.686 1978.8 -19.6709 2014.5 -50.9997L2188.5 -50.9997C2264.88 -116.142 2435.2 -101.725 2552.5 -50.9997L2763.28 307.066L3062.75 516.303C3119.05 540.819 3188.31 550.762 3253.73 545.078L3273.11 543.497L3506.01 979.144C3560.25 1074.87 3439.09 1162.38 3273.47 1151.98Z" fill="url(#paint0_linear)"/>
</g>
<defs>
<linearGradient id="paint0_linear" x1="1246.13" y1="1025.02" x2="1246.19" y2="48" gradientUnits="userSpaceOnUse">
<stop offset="0.022472" stop-color="#573734"/>
<stop offset="0.3626" stop-color="#D6562B"/>
<stop offset="0.6518" stop-color="#ED7C31"/>
<stop offset="1" stop-color="#F4BB3A"/>
</linearGradient>
</defs>
</svg>
