<svg width="1440" height="810" viewBox="0 0 1440 810" fill="none" xmlns="http://www.w3.org/2000/svg">
<mask id="mask0" mask-type="alpha" maskUnits="userSpaceOnUse" x="0" y="0" width="1440" height="810">
<rect width="1440" height="810" fill="#C4C4C4"/>
</mask>
<g mask="url(#mask0)">
<rect y="121" width="1440" height="462" fill="white"/>
<path d="M1558 857L-286 842.677C-252.624 842.677 -193.589 773.38 -170.102 759.71L84.5459 601.742C132.756 572.123 211.869 572.123 258.843 601.742L629.952 703.941L1040.1 577L1323.1 601.742C1346.59 615.412 1525.86 857 1558 857Z" fill="#000F1D"/>
<path d="M1568.75 637.657L1577.93 637.194L1560.28 265.067L1524.12 294.773C1496.02 301.182 1585.42 516.519 1456.73 400.018C1328.03 283.518 1301.01 274.321 1215.65 266.172C1130.29 258.023 853.674 425.984 659.508 476.924L547.007 503.275C518.9 509.684 485.84 509.033 455.963 500.024L128.284 402.471C66.3472 383.492 -1.69807 400.115 -24.0796 438.319L-140.685 641.163C-151.798 659.548 -173.821 673.136 -202.004 680.262L-321.59 708.752C-366.123 719.198 -416.484 709.438 -449.648 688.474C-425.006 714.324 -378.957 732.322 -329.546 729.652L-198.641 723.406C-167.685 722.38 -140.323 712.266 -121.535 696.88L75.0937 559.688C112.902 526.766 192.479 516.895 246.562 545.182L534.202 665.057C560.23 678.004 592.597 685.105 623.63 683.362L746.475 677.701C777.431 676.675 805.922 666.682 823.581 651.175L1024.84 479.176C1062.65 446.254 1138.42 442.789 1192.5 471.077L1479.32 619.351C1505.35 632.299 1537.71 639.4 1568.75 637.657Z" fill="#007C89"/>
<path d="M1620.65 782H1513.39C1481.57 782 1452.1 774.844 1429.71 763.134L1186.9 627.823C1140.93 602.452 1065.5 602.452 1020.71 627.823L777.9 763.134C755.505 775.494 726.038 782 694.214 782H571.631C539.807 782 510.34 774.844 487.945 763.134L245.137 627.823C199.169 602.452 123.734 602.452 78.9442 627.823L-163.864 763.134C-186.259 775.494 -215.725 782 -247.55 782H-378.382C-429.066 782 -471.499 764.435 -488 740.366C-488 740.366 -488 739.715 -486.821 739.715L-485.643 740.366C-457.354 761.183 -407.85 772.242 -357.166 765.737L-222.798 747.522C-190.973 742.968 -162.685 731.909 -145.005 716.296L43.5839 542.603C78.9442 510.076 156.737 499.017 215.67 519.183L528.02 624.57C556.308 634.328 590.49 636.93 622.314 632.377L748.433 615.463C780.257 610.909 808.545 599.85 825.047 584.237L1013.64 410.544C1049 378.017 1126.79 366.958 1185.72 387.124L1498.07 492.511C1526.36 502.269 1560.54 504.872 1592.37 500.318L1601.8 499.017L1729.09 694.828C1758.56 737.763 1701.98 782 1620.65 782Z" fill="#005568"/>
<path d="M1841.32 454.488L1718.46 446.775C1682 444.486 1667.83 505.655 1643.06 489.937L1366.87 252.562C1304.16 196.875 1218.97 198.26 1165.74 225.604L877.37 371.155C850.782 384.436 816.536 390.154 780.081 387.865L639.661 379.05C603.206 376.761 569.993 366.021 545.225 350.304L293.625 202.219C223.312 161.719 138.515 151.594 80.1562 214.312C21.7976 277.031 -240.188 603 -240.188 603C-266.776 616.28 -262.262 322.429 -298.716 320.14L-448.587 310.732C-506.644 307.087 -553.923 282.875 -571.005 252.691C-571.005 252.691 -570.956 251.907 -569.606 251.992L-568.305 252.86C-537.475 279.973 -481.603 296.857 -423.053 292.664L-329.325 -90.1598C-292.526 -93.3572 -161.317 -90.6521 -139.884 -108.19L102.692 -92.9613C145.658 -129.604 259.535 -95.2647 325.519 -66.7314L626.949 -60.0493C658.616 -46.2593 798.333 -31.5414 835.132 -34.7388L938.303 -40.503C975.102 -43.7004 1037.98 -34.4088 1058.06 -52.0313L1174.07 -36.6642C1217.04 -73.307 1306.99 -81.0362 1372.97 -52.5029L1554.35 -20.7754L1722.8 96.9207C1754.47 110.711 1793.42 116.304 1830.22 113.106L1841.12 112.217L1972.13 357.269C2002.64 411.113 1934.49 460.337 1841.32 454.488Z" fill="url(#paint0_linear)"/>
</g>
<defs>
<linearGradient id="paint0_linear" x1="700.945" y1="383.074" x2="724.616" y2="-5.29345" gradientUnits="userSpaceOnUse">
<stop offset="0.022472" stop-color="#573734"/>
<stop offset="0.3626" stop-color="#D6562B"/>
<stop offset="0.6518" stop-color="#ED7C31"/>
<stop offset="1" stop-color="#F4BB3A"/>
</linearGradient>
</defs>
</svg>
